<svg width="18" height="18" viewBox="0 0 18 18" fill="none" xmlns="http://www.w3.org/2000/svg">
<g id="Spinner">
<path id="Ellipse 70 (Stroke)" fill-rule="evenodd" clip-rule="evenodd" d="M8.10683 2.56465C8.21403 2.97093 7.9766 3.38853 7.5765 3.49739C6.58492 3.76718 5.68749 4.31338 4.98575 5.07419C4.284 5.83499 3.80595 6.78004 3.60568 7.80241C3.40541 8.82478 3.49092 9.88366 3.85252 10.8592C4.21412 11.8348 4.83739 12.6882 5.65181 13.3228C6.46623 13.9573 7.4393 14.3478 8.46091 14.45C9.48252 14.5521 10.5119 14.3619 11.4326 13.9009C12.3533 13.4399 13.1285 12.7264 13.6706 11.8412C14.2127 10.956 14.5 9.93436 14.5 8.89197C14.5 8.47136 14.8358 8.13039 15.25 8.13039C15.6642 8.13039 16 8.47136 16 8.89197C16 10.2187 15.6344 11.5189 14.9444 12.6455C14.2545 13.7721 13.2678 14.6802 12.096 15.267C10.9242 15.8537 9.61411 16.0958 8.31388 15.9658C7.01365 15.8357 5.77521 15.3388 4.73867 14.5311C3.70214 13.7235 2.90888 12.6374 2.44866 11.3958C1.98844 10.1541 1.87961 8.80645 2.1345 7.50526C2.3894 6.20406 2.99782 5.00127 3.89095 4.03297C4.78408 3.06467 5.92626 2.36951 7.18827 2.02614C7.58837 1.91728 7.99962 2.15838 8.10683 2.56465Z" fill="#AFB2BE"/>
</g>
</svg>
