<svg width="149" height="26" viewBox="0 0 149 26" fill="none" xmlns="http://www.w3.org/2000/svg">
<path d="M14.8662 4.13379H9.67383V19H5.56055V4.13379H0.393555V0.794922H14.8662V4.13379ZM31.4971 19H27.0283L25.7334 14.9502H19.2588L17.9766 19H13.5332L20.1602 0.794922H25.0225L31.4971 19ZM24.7939 11.8018L22.8389 5.68262C22.695 5.22559 22.5934 4.67969 22.5342 4.04492H22.4326C22.3903 4.57812 22.2845 5.1071 22.1152 5.63184L20.1348 11.8018H24.7939ZM32.9316 18.3018V14.2393C33.668 14.8571 34.4678 15.3226 35.3311 15.6357C36.1943 15.9404 37.0661 16.0928 37.9463 16.0928C38.4626 16.0928 38.9111 16.0462 39.292 15.9531C39.6813 15.86 40.0029 15.7331 40.2568 15.5723C40.5192 15.403 40.7139 15.2083 40.8408 14.9883C40.9678 14.7598 41.0312 14.5143 41.0312 14.252C41.0312 13.8965 40.9297 13.5791 40.7266 13.2998C40.5234 13.0205 40.2441 12.7624 39.8887 12.5254C39.5417 12.2884 39.127 12.0599 38.6445 11.8398C38.1621 11.6198 37.6416 11.3955 37.083 11.167C35.6611 10.5745 34.599 9.85091 33.8965 8.99609C33.2025 8.14128 32.8555 7.10872 32.8555 5.89844C32.8555 4.95052 33.0459 4.13802 33.4268 3.46094C33.8076 2.77539 34.3239 2.21257 34.9756 1.77246C35.6357 1.33236 36.3975 1.01074 37.2607 0.807617C38.124 0.596029 39.0381 0.490234 40.0029 0.490234C40.9508 0.490234 41.7887 0.549479 42.5166 0.667969C43.2529 0.777995 43.93 0.951497 44.5479 1.18848V4.98438C44.2432 4.77279 43.9089 4.58659 43.5449 4.42578C43.1895 4.26497 42.8213 4.13379 42.4404 4.03223C42.0596 3.9222 41.6787 3.8418 41.2979 3.79102C40.9255 3.74023 40.57 3.71484 40.2314 3.71484C39.766 3.71484 39.3428 3.76139 38.9619 3.85449C38.5811 3.93913 38.2594 4.06185 37.9971 4.22266C37.7347 4.38346 37.5316 4.57812 37.3877 4.80664C37.2438 5.02669 37.1719 5.27637 37.1719 5.55566C37.1719 5.86035 37.2523 6.13542 37.4131 6.38086C37.5739 6.61784 37.8024 6.84635 38.0986 7.06641C38.3949 7.27799 38.7546 7.48958 39.1777 7.70117C39.6009 7.9043 40.0791 8.11589 40.6123 8.33594C41.3402 8.64062 41.9919 8.96647 42.5674 9.31348C43.1514 9.65202 43.6507 10.0371 44.0654 10.4688C44.4801 10.9004 44.7975 11.3955 45.0176 11.9541C45.2376 12.5042 45.3477 13.1475 45.3477 13.8838C45.3477 14.8994 45.153 15.7542 44.7637 16.4482C44.3828 17.1338 43.8623 17.6924 43.2021 18.124C42.542 18.5472 41.7718 18.8519 40.8916 19.0381C40.0199 19.2243 39.0973 19.3174 38.124 19.3174C37.1253 19.3174 36.1732 19.2327 35.2676 19.0635C34.3704 18.8942 33.5918 18.6403 32.9316 18.3018ZM63.4766 19H58.2969L52.9902 11.0908C52.8887 10.9385 52.7279 10.6042 52.5078 10.0879H52.4443V19H48.3438V0.794922H52.4443V9.40234H52.5078C52.6094 9.16536 52.7786 8.82682 53.0156 8.38672L58.043 0.794922H62.9307L56.583 9.47852L63.4766 19Z" fill="#484848"/>
<path d="M64.3906 18.3018V14.2393C65.127 14.8571 65.9268 15.3226 66.79 15.6357C67.6533 15.9404 68.5251 16.0928 69.4053 16.0928C69.9215 16.0928 70.3701 16.0462 70.751 15.9531C71.1403 15.86 71.4619 15.7331 71.7158 15.5723C71.9782 15.403 72.1729 15.2083 72.2998 14.9883C72.4268 14.7598 72.4902 14.5143 72.4902 14.252C72.4902 13.8965 72.3887 13.5791 72.1855 13.2998C71.9824 13.0205 71.7031 12.7624 71.3477 12.5254C71.0007 12.2884 70.5859 12.0599 70.1035 11.8398C69.6211 11.6198 69.1006 11.3955 68.542 11.167C67.1201 10.5745 66.0579 9.85091 65.3555 8.99609C64.6615 8.14128 64.3145 7.10872 64.3145 5.89844C64.3145 4.95052 64.5049 4.13802 64.8857 3.46094C65.2666 2.77539 65.7829 2.21257 66.4346 1.77246C67.0947 1.33236 67.8564 1.01074 68.7197 0.807617C69.583 0.596029 70.4971 0.490234 71.4619 0.490234C72.4098 0.490234 73.2477 0.549479 73.9756 0.667969C74.7119 0.777995 75.389 0.951497 76.0068 1.18848V4.98438C75.7021 4.77279 75.3678 4.58659 75.0039 4.42578C74.6484 4.26497 74.2803 4.13379 73.8994 4.03223C73.5186 3.9222 73.1377 3.8418 72.7568 3.79102C72.3844 3.74023 72.029 3.71484 71.6904 3.71484C71.2249 3.71484 70.8018 3.76139 70.4209 3.85449C70.04 3.93913 69.7184 4.06185 69.4561 4.22266C69.1937 4.38346 68.9906 4.57812 68.8467 4.80664C68.7028 5.02669 68.6309 5.27637 68.6309 5.55566C68.6309 5.86035 68.7113 6.13542 68.8721 6.38086C69.0329 6.61784 69.2614 6.84635 69.5576 7.06641C69.8538 7.27799 70.2135 7.48958 70.6367 7.70117C71.0599 7.9043 71.5381 8.11589 72.0713 8.33594C72.7992 8.64062 73.4508 8.96647 74.0264 9.31348C74.6104 9.65202 75.1097 10.0371 75.5244 10.4688C75.9391 10.9004 76.2565 11.3955 76.4766 11.9541C76.6966 12.5042 76.8066 13.1475 76.8066 13.8838C76.8066 14.8994 76.612 15.7542 76.2227 16.4482C75.8418 17.1338 75.3213 17.6924 74.6611 18.124C74.001 18.5472 73.2308 18.8519 72.3506 19.0381C71.4788 19.2243 70.5563 19.3174 69.583 19.3174C68.5843 19.3174 67.6322 19.2327 66.7266 19.0635C65.8294 18.8942 65.0508 18.6403 64.3906 18.3018ZM91.127 6L85.8457 20.041C84.5762 23.418 82.6634 25.1064 80.1074 25.1064C79.1341 25.1064 78.3343 24.9964 77.708 24.7764V21.5771C78.2412 21.8903 78.821 22.0469 79.4473 22.0469C80.4798 22.0469 81.1992 21.5602 81.6055 20.5869L82.291 18.9746L77.0098 6H81.4531L83.8779 13.9092C84.0303 14.4001 84.1488 14.9798 84.2334 15.6484H84.2842C84.3604 15.1576 84.5 14.5863 84.7031 13.9346L87.1533 6H91.127ZM91.8887 18.6572V15.4072C92.5488 15.805 93.2048 16.1012 93.8564 16.2959C94.5166 16.4906 95.1387 16.5879 95.7227 16.5879C96.4336 16.5879 96.9922 16.4906 97.3984 16.2959C97.8132 16.1012 98.0205 15.805 98.0205 15.4072C98.0205 15.1533 97.9274 14.9417 97.7412 14.7725C97.555 14.6032 97.3138 14.4551 97.0176 14.3281C96.7298 14.2012 96.4124 14.0869 96.0654 13.9854C95.7184 13.8838 95.3841 13.7695 95.0625 13.6426C94.5462 13.4479 94.0892 13.2406 93.6914 13.0205C93.3021 12.792 92.972 12.5296 92.7012 12.2334C92.4388 11.9372 92.2357 11.5944 92.0918 11.2051C91.9564 10.8158 91.8887 10.3545 91.8887 9.82129C91.8887 9.09342 92.0452 8.46712 92.3584 7.94238C92.68 7.41764 93.1032 6.99023 93.6279 6.66016C94.1611 6.32161 94.7663 6.07617 95.4434 5.92383C96.1289 5.76302 96.8398 5.68262 97.5762 5.68262C98.1517 5.68262 98.7357 5.72917 99.3281 5.82227C99.9206 5.9069 100.505 6.03385 101.08 6.20312V9.30078C100.572 9.00456 100.026 8.78451 99.4424 8.64062C98.8669 8.48828 98.2998 8.41211 97.7412 8.41211C97.4788 8.41211 97.2292 8.4375 96.9922 8.48828C96.7637 8.5306 96.5605 8.59831 96.3828 8.69141C96.2051 8.77604 96.0654 8.8903 95.9639 9.03418C95.8623 9.1696 95.8115 9.32617 95.8115 9.50391C95.8115 9.74089 95.8877 9.94401 96.04 10.1133C96.1924 10.2826 96.3913 10.4307 96.6367 10.5576C96.8822 10.6761 97.153 10.7861 97.4492 10.8877C97.7539 10.9808 98.0544 11.0781 98.3506 11.1797C98.8838 11.3659 99.3662 11.569 99.7979 11.7891C100.229 12.0091 100.598 12.2673 100.902 12.5635C101.215 12.8597 101.452 13.2067 101.613 13.6045C101.783 14.0023 101.867 14.4762 101.867 15.0264C101.867 15.7965 101.698 16.4567 101.359 17.0068C101.029 17.5485 100.585 17.9928 100.026 18.3398C99.4762 18.6784 98.8372 18.9238 98.1094 19.0762C97.39 19.237 96.641 19.3174 95.8623 19.3174C94.432 19.3174 93.1074 19.0973 91.8887 18.6572ZM112.049 18.8477C111.456 19.1608 110.563 19.3174 109.37 19.3174C106.543 19.3174 105.13 17.849 105.13 14.9121V8.95801H103.022V6H105.13V3.19434L109.129 2.05176V6H112.049V8.95801H109.129V14.2139C109.129 15.568 109.666 16.2451 110.741 16.2451C111.164 16.2451 111.6 16.1224 112.049 15.877V18.8477ZM125.899 13.6426H117.419C117.554 15.5299 118.743 16.4736 120.986 16.4736C122.417 16.4736 123.674 16.1351 124.757 15.458V18.3525C123.555 18.9958 121.993 19.3174 120.072 19.3174C117.973 19.3174 116.344 18.7376 115.185 17.5781C114.025 16.4102 113.445 14.7852 113.445 12.7031C113.445 10.5449 114.072 8.83529 115.324 7.57422C116.577 6.31315 118.117 5.68262 119.945 5.68262C121.841 5.68262 123.305 6.24544 124.338 7.37109C125.379 8.49674 125.899 10.0244 125.899 11.9541V13.6426ZM122.18 11.1797C122.18 9.31771 121.426 8.38672 119.92 8.38672C119.277 8.38672 118.718 8.65332 118.244 9.18652C117.779 9.71973 117.495 10.3841 117.394 11.1797H122.18ZM148.929 19H144.93V11.5859C144.93 9.69857 144.236 8.75488 142.848 8.75488C142.188 8.75488 141.65 9.03841 141.235 9.60547C140.821 10.1725 140.613 10.8792 140.613 11.7256V19H136.602V11.5098C136.602 9.67318 135.92 8.75488 134.558 8.75488C133.872 8.75488 133.322 9.02572 132.907 9.56738C132.501 10.109 132.298 10.8454 132.298 11.7764V19H128.286V6H132.298V8.03125H132.349C132.763 7.33724 133.343 6.77441 134.088 6.34277C134.841 5.90267 135.662 5.68262 136.551 5.68262C138.387 5.68262 139.644 6.49089 140.321 8.10742C141.312 6.49089 142.767 5.68262 144.688 5.68262C147.515 5.68262 148.929 7.42611 148.929 10.9131V19Z" fill="#4971FF"/>
</svg>
