<svg width="34" height="34" viewBox="0 0 34 34" fill="none" xmlns="http://www.w3.org/2000/svg">
<g clip-path="url(#clip0_2311_270)">
<path d="M17 34C26.3888 34 34 26.3888 34 17C34 7.61116 26.3888 0 17 0C7.61116 0 0 7.61116 0 17C0 26.3888 7.61116 34 17 34Z" fill="#4971FF"/>
<path d="M12.6562 24.6688L21.3976 33.4101C28.6373 31.4795 34.0001 24.8833 34.0001 17V16.5173L27.1357 10.1893L12.6562 24.6688Z" fill="black" fill-opacity="0.16"/>
<path d="M17.4291 20.8076C18.1799 21.5584 18.1799 22.8454 17.4291 23.5962L15.8739 25.1514C15.1231 25.9022 13.836 25.9022 13.0852 25.1514L6.27452 18.2871C5.52373 17.5363 5.52373 16.2492 6.27452 15.4984L7.82972 13.9432C8.58051 13.1924 9.86758 13.1924 10.6184 13.9432L17.4291 20.8076Z" fill="white"/>
<path d="M23.3817 8.95585C24.1325 8.20506 25.4196 8.20506 26.1703 8.95585L27.7256 10.5111C28.4763 11.2618 28.4763 12.5489 27.7256 13.2997L15.9274 25.0442C15.1767 25.795 13.8896 25.795 13.1388 25.0442L11.5836 23.489C10.8328 22.7382 10.8328 21.4511 11.5836 20.7003L23.3817 8.95585Z" fill="white"/>
</g>
<defs>
<clipPath id="clip0_2311_270">
<rect width="34" height="34" fill="white"/>
</clipPath>
</defs>
</svg>
